<?xml version="1.0" standalone="no"?>
<!DOCTYPE svg PUBLIC "-//W3C//DTD SVG 20010904//EN"
 "http://www.w3.org/TR/2001/REC-SVG-20010904/DTD/svg10.dtd">
<svg version="1.0" xmlns="http://www.w3.org/2000/svg"
 width="989.000000pt" height="449.000000pt" viewBox="0 0 989.000000 449.000000"
 preserveAspectRatio="xMidYMid meet" >

<g transform="translate(0.000000,449.000000) scale(0.100000,-0.100000)"
fill="currentColor" stroke="none">
<path d="M3470 4361 c-69 -21 -123 -66 -155 -130 -26 -51 -18 -156 16 -207 42
-63 100 -97 174 -102 76 -5 125 10 172 51 68 60 93 170 58 255 -43 101 -166
163 -265 133z"/>
<path d="M3810 4120 c0 -11 5 -20 10 -20 6 0 124 -16 263 -35 138 -19 353 -48
477 -64 342 -46 805 -109 1000 -136 369 -52 846 -115 868 -115 14 0 22 6 22
18 0 16 -36 22 -312 60 -172 23 -542 74 -823 112 -660 91 -1478 200 -1493 200
-7 0 -12 -9 -12 -20z"/>
<path d="M3720 3927 c0 -7 18 -31 41 -52 26 -26 38 -33 33 -20 -7 18 -6 19 12
5 18 -14 18 -14 5 5 -47 65 -91 94 -91 62z"/>
<path d="M6640 3900 c-68 -23 -115 -73 -129 -139 -15 -73 3 -133 56 -183 82
-78 208 -74 285 8 35 38 48 74 48 135 0 138 -127 225 -260 179z"/>
<path d="M3331 3873 c-6 -16 -29 -57 -52 -93 -54 -88 -92 -169 -95 -202 -1
-16 -1 -28 1 -28 6 0 185 331 185 342 0 20 -29 5 -39 -19z m22 2 c-3 -9 -8
-14 -10 -11 -3 3 -2 9 2 15 9 16 15 13 8 -4z m-142 -262 c-11 -21 -20 -35 -21
-31 0 12 33 78 38 74 2 -2 -6 -21 -17 -43z"/>
<path d="M3843 3788 c20 -24 40 -42 46 -40 6 1 10 -2 9 -6 -3 -9 58 -82 68
-82 4 0 0 8 -7 18 -7 9 4 1 24 -17 20 -19 37 -37 37 -40 0 -2 -11 6 -25 19
-14 13 -25 19 -25 14 0 -5 25 -34 56 -64 31 -30 53 -49 49 -41 -6 10 -4 12 4
7 6 -4 9 -12 6 -17 -7 -10 185 -220 195 -214 4 3 18 -8 31 -23 13 -14 16 -20
7 -13 -46 35 -7 -14 89 -114 59 -60 102 -103 95 -94 -7 9 -8 19 -4 23 4 4 2 7
-3 6 -20 -4 -30 1 -17 8 15 10 -216 273 -235 267 -7 -2 -15 0 -18 5 -4 6 -1
10 6 10 7 0 -4 18 -26 40 -21 21 -42 37 -47 34 -4 -3 -5 3 -1 12 5 13 3 16 -9
11 -10 -3 -23 3 -35 16 l-18 22 23 -19 c33 -28 27 -7 -9 30 -18 19 -37 30 -46
27 -9 -4 -13 0 -11 9 4 21 -81 121 -98 114 -7 -3 -11 0 -9 7 3 7 -20 39 -50
72 -30 33 -52 51 -49 40 5 -19 5 -19 -9 -2 -8 9 -18 17 -22 17 -4 0 8 -19 28
-42z m197 -183 c7 -9 8 -15 2 -15 -5 0 -12 7 -16 15 -3 8 -4 15 -2 15 2 0 9
-7 16 -15z m165 -185 c10 -11 16 -20 13 -20 -3 0 -13 9 -23 20 -10 11 -16 20
-13 20 3 0 13 -9 23 -20z m240 -260 c11 -14 4 -10 -18 10 -20 19 -49 51 -63
70 -22 28 -18 26 17 -10 24 -25 53 -56 64 -70z"/>
<path d="M6406 3585 c-22 -13 -41 -31 -42 -39 -3 -21 0 -20 57 11 45 24 57 42
33 50 -5 1 -27 -9 -48 -22z m8 -20 c-10 -8 -23 -15 -28 -15 -6 0 -1 7 10 15
10 8 23 15 28 15 6 0 1 -7 -10 -15z"/>
<path d="M3157 3556 c-4 -10 -4 -22 -1 -27 3 -5 0 -8 -6 -7 -6 2 -36 -43 -66
-99 -41 -76 -51 -101 -37 -96 17 6 17 5 -1 -15 -20 -23 -32 -29 -21 -12 3 6 4
10 1 10 -5 0 -36 -66 -36 -76 0 -2 7 -4 16 -4 8 0 12 5 9 10 -3 6 -2 10 4 10
5 0 44 63 86 141 62 114 75 145 68 162 -9 19 -10 19 -16 3z"/>
<path d="M6280 3512 c-36 -21 -167 -95 -292 -166 -125 -71 -225 -132 -223
-136 3 -5 0 -12 -6 -16 -8 -4 -9 -3 -5 4 13 21 -5 13 -118 -51 -61 -35 -162
-92 -224 -127 -82 -46 -109 -66 -100 -73 9 -6 8 -7 -6 -3 -11 4 -47 -9 -95
-35 -92 -51 -85 -45 -77 -64 5 -13 9 -13 25 -3 15 9 17 15 8 21 -8 6 -5 7 9 4
13 -3 42 7 70 23 27 16 78 44 114 63 36 19 92 51 124 71 33 20 64 36 69 36 4
0 5 5 1 12 -4 7 -3 8 4 4 6 -4 53 17 104 47 51 30 122 71 158 90 36 20 64 41
62 47 -1 6 2 9 8 5 5 -3 31 6 57 21 164 93 202 117 198 124 -3 5 0 12 6 16 8
4 9 3 5 -4 -12 -20 3 -14 103 43 58 32 98 61 98 70 0 21 -4 20 -77 -23z m60
14 c0 -2 -7 -7 -16 -10 -8 -3 -12 -2 -9 4 6 10 25 14 25 6z m-71 -39 c-16 -13
-79 -48 -79 -44 0 7 63 47 74 47 5 0 7 -1 5 -3z m-259 -151 c0 -2 -7 -7 -16
-10 -8 -3 -12 -2 -9 4 6 10 25 14 25 6z m-85 -46 c-3 -5 -12 -10 -18 -10 -7 0
-6 4 3 10 19 12 23 12 15 0z m-385 -224 c0 -2 -7 -7 -16 -10 -8 -3 -12 -2 -9
4 6 10 25 14 25 6z m-184 -101 c-20 -15 -36 -19 -36 -10 0 5 38 23 50 24 3 0
-4 -6 -14 -14z m-196 -109 c0 -3 -4 -8 -10 -11 -5 -3 -10 -1 -10 4 0 6 5 11
10 11 6 0 10 -2 10 -4z"/>
<path d="M6680 2320 c1 -971 3 -1140 15 -1140 8 0 17 6 22 13 5 9 8 1470 3
2240 0 20 -5 27 -20 27 -20 0 -20 -6 -20 -1140z"/>
<path d="M4280 3310 c0 -5 5 -10 11 -10 5 0 7 5 4 10 -3 6 -8 10 -11 10 -2 0
-4 -4 -4 -10z"/>
<path d="M2448 3270 c-160 -25 -343 -104 -473 -202 -239 -181 -394 -381 -728
-938 -318 -531 -437 -702 -611 -876 -144 -144 -249 -214 -383 -258 -29 -10
-53 -19 -53 -21 0 -9 93 9 160 31 196 63 377 218 596 509 90 119 183 262 354
540 284 464 404 629 580 798 173 166 338 262 514 298 110 23 177 24 287 4 104
-18 171 -41 279 -95 154 -76 319 -213 496 -412 145 -161 176 -200 434 -543
294 -390 409 -529 592 -715 409 -418 869 -625 1343 -607 221 9 391 49 674 158
86 34 240 92 343 129 472 172 731 303 1016 514 165 122 286 230 552 494 319
317 453 420 622 478 152 52 308 40 466 -36 98 -47 108 -49 61 -14 -233 174
-490 171 -773 -7 -117 -73 -216 -158 -446 -378 -294 -283 -406 -378 -600 -513
-250 -172 -519 -303 -920 -445 -85 -30 -214 -79 -287 -108 -513 -209 -891
-228 -1299 -68 -416 163 -754 478 -1314 1223 -478 637 -717 866 -1032 994
-149 60 -325 85 -450 66z"/>
<path d="M4526 3065 c3 -34 51 -85 78 -85 15 0 17 -3 8 -9 -11 -7 -11 -9 1
-14 25 -9 14 20 -23 60 -18 21 -31 30 -27 21 3 -10 2 -18 -3 -18 -6 0 -10 3
-11 8 -2 26 -9 46 -17 54 -6 6 -8 -1 -6 -17z"/>
<path d="M2855 3000 c-9 -17 -13 -36 -9 -42 4 -7 3 -8 -4 -4 -12 7 -16 -5 -13
-33 2 -7 -2 -10 -7 -7 -6 3 -67 -101 -137 -232 -70 -130 -143 -265 -162 -300
-18 -34 -31 -68 -27 -74 4 -6 3 -8 -3 -5 -12 8 -26 -20 -17 -34 3 -5 0 -8 -6
-7 -6 2 -33 -40 -61 -92 -28 -52 -66 -123 -85 -158 -19 -34 -32 -67 -28 -74 4
-6 3 -8 -3 -5 -5 3 -25 -24 -45 -61 -19 -37 -58 -111 -87 -164 -29 -55 -49
-103 -45 -109 4 -8 3 -9 -4 -5 -14 8 -61 -83 -54 -104 3 -8 1 -12 -3 -8 -14
13 -54 -64 -49 -92 4 -17 3 -21 -4 -12 -7 10 -20 -4 -50 -56 -39 -68 -42 -82
-17 -82 18 0 107 178 92 183 -9 3 -9 8 1 18 9 10 12 10 12 0 0 -7 5 -9 10 -6
6 3 10 11 10 16 0 6 -4 7 -10 4 -5 -3 -10 -2 -10 4 0 5 7 11 16 13 24 5 156
255 149 282 -5 15 -4 17 3 7 8 -11 14 -7 27 19 10 19 27 50 38 69 11 20 42 79
70 131 27 52 69 129 92 170 75 134 105 198 99 217 -4 13 -3 15 4 5 11 -15 25
8 116 181 37 71 55 115 51 128 -5 13 -2 17 7 14 15 -6 86 111 107 178 7 20 17
37 23 37 6 0 5 7 -3 17 -11 13 -11 15 -1 9 16 -10 44 23 37 42 -3 7 -1 11 4 8
11 -7 23 22 15 35 -10 17 -23 9 -39 -21z m-230 -481 c-4 -5 -12 -9 -18 -8 -9
0 -8 2 1 6 6 2 9 10 6 15 -4 7 -2 8 5 4 6 -4 9 -12 6 -17z m-194 -342 c-10 -9
-11 -8 -5 6 3 10 9 15 12 12 3 -3 0 -11 -7 -18z m-200 -384 c-12 -20 -14 -14
-5 12 4 9 9 14 11 11 3 -2 0 -13 -6 -23z"/>
<path d="M4779 2926 c-83 -29 -140 -95 -160 -184 -23 -97 41 -220 136 -263 88
-41 216 -17 282 52 59 63 79 158 52 250 -36 119 -186 189 -310 145z"/>
<path d="M4315 2365 c-338 -193 -303 -170 -285 -188 13 -13 46 3 290 142 152
86 281 160 287 164 14 9 6 37 -11 36 -6 0 -132 -70 -281 -154z"/>
<path d="M5097 2486 c-4 -11 -1 -13 10 -9 10 4 14 2 10 -4 -4 -6 15 -29 42
-51 42 -36 50 -39 56 -24 4 11 0 21 -10 27 -9 6 -33 25 -53 42 -42 37 -48 39
-55 19z"/>
<path d="M4840 1836 c0 -519 1 -554 18 -558 16 -5 17 25 15 531 -2 644 0 581
-18 581 -13 0 -15 -68 -15 -554z"/>
<path d="M5226 2383 c-7 -7 33 -53 45 -53 5 0 6 8 3 18 -5 14 -4 14 4 2 6 -8
9 -17 6 -21 -2 -4 34 -39 80 -78 83 -69 105 -84 89 -58 -4 6 -8 17 -8 23 0 18
-173 156 -180 144 -4 -6 -11 -7 -17 -4 -7 4 -6 9 2 14 8 5 8 9 -3 13 -8 3 -18
3 -21 0z m209 -161 c-3 -3 -11 0 -18 7 -9 10 -8 11 6 5 10 -3 15 -9 12 -12z"/>
<path d="M5460 2195 c7 -8 9 -15 5 -15 -5 0 0 -9 10 -20 10 -12 25 -18 32 -15
8 2 12 1 9 -4 -8 -13 51 -64 65 -56 7 5 10 4 6 -3 -4 -5 8 -22 25 -36 18 -14
43 -36 54 -47 12 -12 27 -19 32 -15 6 3 14 1 18 -5 5 -8 2 -10 -7 -4 -8 4 9
-13 36 -39 28 -25 56 -43 63 -41 7 3 11 1 7 -4 -7 -13 165 -152 178 -144 5 3
7 1 4 -5 -9 -14 89 -96 104 -86 7 4 9 3 5 -4 -3 -6 17 -31 46 -56 35 -31 54
-42 59 -34 6 9 13 7 28 -6 12 -11 21 -17 21 -14 0 13 -123 107 -133 101 -5 -3
-7 -2 -4 4 3 5 -2 16 -11 24 -9 8 -42 35 -73 62 -55 46 -77 59 -63 35 4 -7 3
-8 -5 -4 -6 4 -9 11 -6 16 8 12 -105 101 -117 93 -6 -3 -8 -1 -5 5 4 5 -8 22
-25 37 -18 15 -55 46 -83 70 -27 24 -69 59 -92 77 -23 18 -73 59 -112 91 -68
56 -96 72 -71 42z m96 -77 l19 -21 -27 18 c-29 18 -34 25 -20 25 5 0 17 -10
28 -22z m59 -48 c3 -5 2 -10 -4 -10 -5 0 -13 5 -16 10 -3 6 -2 10 4 10 5 0 13
-4 16 -10z m140 -110 c3 -5 2 -10 -4 -10 -5 0 -13 5 -16 10 -3 6 -2 10 4 10 5
0 13 -4 16 -10z m45 -46 c0 -2 -9 0 -20 6 -11 6 -20 13 -20 16 0 2 9 0 20 -6
11 -6 20 -13 20 -16z m111 -91 c29 -33 30 -34 4 -13 -48 41 -57 50 -48 50 5 0
25 -17 44 -37z m147 -124 c17 -16 32 -33 32 -36 0 -4 -17 9 -37 28 -21 18 -40
35 -42 37 -2 1 0 2 5 2 5 0 24 -14 42 -31z"/>
<path d="M3785 2066 c-93 -54 -698 -396 -1185 -670 -289 -162 -526 -301 -528
-309 -7 -32 19 -23 149 50 74 41 359 201 634 355 275 154 505 284 510 288 9 6
205 118 395 224 91 51 91 51 84 69 -8 22 -11 21 -59 -7z"/>
<path d="M6220 1547 c0 -7 166 -147 174 -147 4 0 4 5 0 12 -4 7 -3 8 5 4 6 -4
9 -11 7 -15 -8 -12 51 -64 63 -56 7 3 10 1 9 -6 -2 -8 12 -21 29 -30 18 -9 30
-18 28 -21 -3 -3 13 -19 34 -36 30 -24 40 -28 45 -17 6 17 -268 250 -283 240
-6 -3 -13 0 -17 6 -4 8 -3 9 4 5 7 -4 12 -4 12 -1 0 13 -54 50 -68 47 -7 -2
-20 2 -28 9 -8 6 -14 9 -14 6z m165 -117 c11 -17 -5 -11 -28 11 l-22 21 22
-11 c12 -6 25 -16 28 -21z m125 -105 c11 -13 10 -14 -4 -9 -9 3 -16 10 -16 15
0 13 6 11 20 -6z m95 -75 c11 -17 -5 -11 -28 11 l-22 21 22 -11 c12 -6 25 -16
28 -21z"/>
<path d="M1740 1195 c-99 -31 -162 -115 -162 -215 0 -73 22 -119 78 -169 168
-147 424 17 365 234 -30 113 -167 186 -281 150z"/>
<path d="M4840 842 c-1 -165 1 -183 16 -180 14 3 16 24 19 161 3 140 1 160
-15 180 -18 21 -18 18 -20 -161z"/>
<path d="M2090 946 c0 -7 12 -16 28 -19 65 -11 405 -80 482 -97 90 -21 472
-97 554 -111 48 -8 66 -5 66 10 0 4 -39 16 -87 25 -145 30 -194 37 -205 30 -6
-4 -8 -3 -5 2 7 13 -376 89 -393 79 -8 -5 -11 -4 -7 2 8 12 -319 75 -353 67
-17 -4 -21 -3 -12 4 10 7 5 11 -18 16 -45 9 -50 8 -50 -8z m223 -43 c-7 -2
-19 -2 -25 0 -7 3 -2 5 12 5 14 0 19 -2 13 -5z m154 -29 c-3 -3 -12 -4 -19 -1
-8 3 -5 6 6 6 11 1 17 -2 13 -5z m384 -82 c-7 -2 -18 1 -23 6 -8 8 -4 9 13 5
13 -4 18 -8 10 -11z m316 -58 c-3 -3 -12 -4 -19 -1 -8 3 -5 6 6 6 11 1 17 -2
13 -5z m40 -10 c-3 -3 -12 -4 -19 -1 -8 3 -5 6 6 6 11 1 17 -2 13 -5z"/>
<path d="M6692 951 c-9 -5 -12 -25 -10 -57 3 -41 6 -49 23 -49 18 0 20 7 21
58 0 56 -7 66 -34 48z"/>
<path d="M6636 775 c-116 -41 -163 -182 -97 -288 50 -77 135 -109 225 -83 80
24 146 107 146 186 0 40 -25 96 -61 134 -57 63 -131 80 -213 51z"/>
<path d="M3255 724 c37 -11 35 -20 -3 -17 l-37 2 35 -8 c132 -31 701 -145 727
-146 17 0 29 -2 27 -4 -5 -6 404 -89 466 -95 25 -2 58 -9 74 -15 32 -13 41 -9
33 12 -6 16 -81 29 -118 21 -17 -4 -20 -3 -11 4 10 6 -12 14 -70 26 -46 9
-182 36 -303 60 -121 25 -246 50 -277 56 -32 6 -63 8 -69 4 -7 -4 -9 -3 -6 2
3 6 -89 29 -216 54 -213 42 -297 56 -252 44z m632 -140 c-3 -3 -12 -4 -19 -1
-8 3 -5 6 6 6 11 1 17 -2 13 -5z m683 -134 c0 -5 -7 -7 -15 -4 -8 4 -15 8 -15
10 0 2 7 4 15 4 8 0 15 -4 15 -10z"/>
<path d="M4785 588 c-86 -30 -138 -106 -138 -200 0 -45 5 -65 26 -97 96 -145
292 -139 369 12 29 59 22 150 -16 206 -51 73 -157 108 -241 79z"/>
<path d="M6035 540 c-176 -21 -426 -50 -555 -65 -129 -15 -260 -30 -290 -34
-42 -5 -56 -10 -58 -24 -3 -16 1 -18 40 -13 86 12 711 85 1126 132 99 11 151
21 149 28 -6 20 -87 15 -412 -24z"/>
</g>
</svg>
