<svg width="800" height="500" viewBox="0 0 800 500" xmlns="http://www.w3.org/2000/svg">

  <!-- Curva tipo función / montaña -->
  <path d="M50 250 C150 100, 300 400, 450 250 S750 150, 750 250"
        fill="none"
        stroke="#0B2A5B"
        stroke-width="6"/>

  <!-- Conexiones (líneas) -->
  <line x1="200" y1="150" x2="350" y2="250" stroke="#888888" stroke-width="2"/>
  <line x1="350" y1="250" x2="500" y2="150" stroke="#888888" stroke-width="2"/>
  <line x1="200" y1="350" x2="350" y2="250" stroke="#888888" stroke-width="2"/>
  <line x1="350" y1="250" x2="500" y2="350" stroke="#888888" stroke-width="2"/>
  <line x1="200" y1="150" x2="200" y2="350" stroke="#888888" stroke-width="2"/>
  <line x1="500" y1="150" x2="500" y2="350" stroke="#888888" stroke-width="2"/>

  <!-- Nodos -->
  <circle cx="200" cy="150" r="10" fill="#0B2A5B"/>
  <circle cx="500" cy="150" r="10" fill="#0B2A5B"/>
  <circle cx="200" cy="350" r="10" fill="#0B2A5B"/>
  <circle cx="500" cy="350" r="10" fill="#0B2A5B"/>

  <!-- Nodo central destacado -->
  <circle cx="350" cy="250" r="12" fill="#1E88A8"/>

  <!-- Texto principal 
  <text x="100" y="430"
        font-family="Arial, Helvetica, sans-serif"
        font-size="80"
        font-weight="bold"
        fill="#0B2A5B">
    SIAM
  </text>

  <text x="360" y="430"
        font-family="Arial, Helvetica, sans-serif"
        font-size="70"
        fill="#666666">
    Cali
  </text>

   Línea decorativa 
  <line x1="100" y1="450" x2="700" y2="450" stroke="#0B2A5B" stroke-width="2"/>
  
   Subtítulo 
  <text x="180" y="480"
        font-family="Arial, Helvetica, sans-serif"
        font-size="20"
        fill="#666666"
        letter-spacing="2">
    STUDENT CHAPTER • COLOMBIA
  </text> -->

</svg>